<svg xmlns="http://www.w3.org/2000/svg" version="1.2" viewBox="180 140 570 575">
	<style>
		.s0 { fill: #000000 }
	</style>
	<path class="s0" d="m293.71 277.6c5.47 1.71 37.99 20.86 45.1 24.9q62.37 35.05 123.93 71.51c11.7-5.26 33.87-19.92 46.48-26.86 40.91-22.52 82.31-48.57 123.57-70.17 2.73 14.01 2.62 127.9-0.13 142.22q-29.75 16.81-59.17 34.22-41.28 24.41-83.24 47.62c-6.49-13.77-12.92-33.17-18.22-47.83-0.06 14.39 1.04 28.56 1.54 42.93 0.4 11.35 0.65 15.9-10.22 21.23-14.25-2.52-9.21-50.08-9.19-63.75-5.54 16.5-10.61 31.16-17.03 47.4-25.68-11.53-62.58-35.65-87.78-49.75-14.37-8.04-41.98-23.57-54.78-32.64-2.56-14.35-3.05-126.11-0.86-141.03z"/>
	<path class="s0" d="m599.88 476.48c1.43 0.65 1.52 1.04 2.72 2.23 2.01 10.80 2.01 53.74-0.41 63.69l-0.20 0.81c-1.86 7.84-36.88 23.86-45.79 28.46-5.94-1.12-13.75-3.48-19.75-5.09-1.91 14.99-5.17 34.56-9.50 48.88-5.28 4.22-18.83 11.57-25.30 15.27-3 1.68-2.84 1.59-6.30 1.40-0.20-0.30-0.42-0.59-0.60-0.91-1.61-2.89 17.30-96.35 20.84-105.77 7.45-5.24 52.01-8.46 64.85-9.89 7.08-16.40 4.68-28.72 19.44-39.08z"/>
	<path class="s0" d="m323.46 476.74c18.01 6.94 17.85 21.43 22.06 38.81 20.59 2.24 45.56 4.36 65.62 7.92 9.30 30.16 12.17 69.38 20.17 100.67 0.81 3.19 0.38 6.77-1.70 9.29-40.99-21.36-30.06-25.50-40.19-66.99-6.10 2.18-12.48 4.22-18.64 6.29-11.68-4.49-43.66-22.51-46.46-34.04-3.69-15.18-1.64-45.88-0.86-61.95z"/>
	<path class="s0" d="m428.41 526.05c11.27 3.72 24.12 11.31 31.59 20.61l1.01 1.27c3.54 0.81 10.51-6.21 14-8.73 7.76-5.60 15.65-9.96 24.03-14.49-2.81 17.15-4.19 35.16-6.95 52.67-1.53 10.12-2.62 21.07-3.81 31.30-7.39 0.74-44.42 0.47-46.94-3.02-5.79-8.05-11.36-67.70-12.93-79.61z"/>
</svg>
